# Blender v2.78 (sub 0) OBJ File: ''
# www.blender.org
mtllib test1.mtl
o Cube.001
v -5.920516 -0.889607 7.449420
v -5.920516 6.347398 7.449420
v -5.920516 -0.889607 -2.830480
v -5.920516 6.347398 -2.830480
v -3.920516 -0.889607 7.449420
v -3.920516 6.347398 7.449420
v -3.920516 -0.889607 -2.830480
v -3.920516 6.347398 -2.830480
vn -1.0000 0.0000 0.0000
vn 0.0000 0.0000 -1.0000
vn 1.0000 0.0000 0.0000
vn 0.0000 0.0000 1.0000
vn 0.0000 -1.0000 0.0000
vn 0.0000 1.0000 0.0000
usemtl None
s off
f 1//1 2//1 4//1 3//1
f 3//2 4//2 8//2 7//2
f 7//3 8//3 6//3 5//3
f 5//4 6//4 2//4 1//4
f 3//5 7//5 5//5 1//5
f 8//6 4//6 2//6 6//6
o Cube
v 8.000000 -0.050000 -8.000000
v 8.000000 -0.050000 8.000000
v -8.000001 -0.050000 7.999999
v -7.999997 -0.050000 -8.000003
v 8.000004 0.050000 -7.999996
v 7.999995 0.050000 8.000005
v -8.000003 0.050000 7.999997
v -8.000000 0.050000 -8.000000
vn 0.0000 -1.0000 0.0000
vn 0.0000 1.0000 0.0000
vn 1.0000 0.0000 0.0000
vn -0.0000 -0.0000 1.0000
vn -1.0000 -0.0000 -0.0000
vn 0.0000 0.0000 -1.0000
usemtl Material
s off
f 9//7 10//7 11//7 12//7
f 13//8 16//8 15//8 14//8
f 9//9 13//9 14//9 10//9
f 10//10 14//10 15//10 11//10
f 11//11 15//11 16//11 12//11
f 13//12 9//12 12//12 16//12
