# Blender v2.78 (sub 0) OBJ File: ''
# www.blender.org
mtllib theater.mtl
o Cube.004_Cube.005
v 18.334589 -2.279186 1.000000
v 18.334589 2.589741 1.000000
v 18.334589 -2.279186 -1.000000
v 18.334589 2.589741 -1.000000
v 18.602411 -2.279186 1.000000
v 18.602411 2.589741 1.000000
v 18.602411 -2.279186 -1.000000
v 18.602411 2.589741 -1.000000
vn -1.0000 0.0000 0.0000
vn 0.0000 0.0000 -1.0000
vn 1.0000 0.0000 0.0000
vn 0.0000 0.0000 1.0000
vn 0.0000 -1.0000 0.0000
vn 0.0000 1.0000 0.0000
usemtl None
s off
f 1//1 2//1 4//1 3//1
f 3//2 4//2 8//2 7//2
f 7//3 8//3 6//3 5//3
f 5//4 6//4 2//4 1//4
f 3//5 7//5 5//5 1//5
f 8//6 4//6 2//6 6//6
o Cube.003_Cube.004
v 17.240036 0.527626 1.000000
v 17.240036 0.028774 1.000000
v 17.240036 0.527626 -1.000000
v 17.240036 0.028774 -1.000000
v 18.547401 0.527626 1.000000
v 18.547401 0.028774 1.000000
v 18.547401 0.527626 -1.000000
v 18.547401 0.028774 -1.000000
vn 1.0000 0.0000 0.0000
vn 0.0000 0.0000 1.0000
vn -1.0000 0.0000 0.0000
vn 0.0000 0.0000 -1.0000
vn 0.0000 -1.0000 0.0000
vn 0.0000 1.0000 0.0000
usemtl None
s off
f 9//7 10//7 12//7 11//7
f 11//8 12//8 16//8 15//8
f 15//9 16//9 14//9 13//9
f 13//10 14//10 10//10 9//10
f 11//11 15//11 13//11 9//11
f 16//12 12//12 10//12 14//12
o Cylinder_Cylinder.001
v 4.594480 11.776801 23.711607
v 4.594480 12.540175 23.711607
v 5.700791 11.776801 23.774792
v 5.700791 12.540175 23.774792
v 6.764587 11.776801 23.961922
v 6.764587 12.540175 23.961922
v 7.744987 11.776801 24.265800
v 7.744987 12.540175 24.265800
v 8.604315 11.776801 24.674755
v 8.604315 12.540175 24.674755
v 9.309547 11.776801 25.173067
v 9.309547 12.540175 25.173067
v 9.833582 11.776801 25.741587
v 9.833582 12.540175 25.741587
v 10.156281 11.776801 26.358467
v 10.156281 12.540175 26.358467
v 10.265243 11.776801 27.000000
v 10.265243 12.540175 27.000000
v 10.156281 11.776801 27.641533
v 10.156281 12.540175 27.641533
v 9.833582 11.776801 28.258413
v 9.833582 12.540175 28.258413
v 9.309547 11.776801 28.826933
v 9.309547 12.540175 28.826933
v 8.604315 11.776801 29.325245
v 8.604315 12.540175 29.325245
v 7.744987 11.776801 29.734200
v 7.744987 12.540175 29.734200
v 6.764586 11.776801 30.038080
v 6.764586 12.540175 30.038080
v 5.700789 11.776801 30.225208
v 5.700789 12.540175 30.225208
v 4.594478 11.776801 30.288393
v 4.594478 12.540175 30.288393
v 3.488167 11.776801 30.225208
v 3.488167 12.540175 30.225208
v 2.424371 11.776801 30.038078
v 2.424371 12.540175 30.038078
v 1.443970 11.776801 29.734198
v 1.443970 12.540175 29.734198
v 0.584643 11.776801 29.325245
v 0.584643 12.540175 29.325245
v -0.120589 11.776801 28.826931
v -0.120589 12.540175 28.826931
v -0.644623 11.776801 28.258411
v -0.644623 12.540175 28.258411
v -0.967321 11.776801 27.641531
v -0.967321 12.540175 27.641531
v -1.076283 11.776801 26.999996
v -1.076283 12.540175 26.999996
v -0.967319 11.776801 26.358463
v -0.967319 12.540175 26.358463
v -0.644619 11.776801 25.741583
v -0.644619 12.540175 25.741583
v -0.120583 11.776801 25.173063
v -0.120583 12.540175 25.173063
v 0.584651 11.776801 24.674751
v 0.584651 12.540175 24.674751
v 1.443980 11.776801 24.265799
v 1.443980 12.540175 24.265799
v 2.424381 11.776801 23.961918
v 2.424381 12.540175 23.961918
v 3.488178 11.776801 23.774792
v 3.488178 12.540175 23.774792
vn 0.0570 0.0000 -0.9984
vn 0.1732 0.0000 -0.9849
vn 0.2961 0.0000 -0.9552
vn 0.4297 0.0000 -0.9030
vn 0.5771 0.0000 -0.8167
vn 0.7353 0.0000 -0.6778
vn 0.8861 0.0000 -0.4635
vn 0.9859 0.0000 -0.1674
vn 0.9859 0.0000 0.1674
vn 0.8861 0.0000 0.4635
vn 0.7353 0.0000 0.6778
vn 0.5771 0.0000 0.8167
vn 0.4297 0.0000 0.9030
vn 0.2961 0.0000 0.9552
vn 0.1732 0.0000 0.9849
vn 0.0570 0.0000 0.9984
vn -0.0570 0.0000 0.9984
vn -0.1732 0.0000 0.9849
vn -0.2961 0.0000 0.9552
vn -0.4297 0.0000 0.9030
vn -0.5771 0.0000 0.8167
vn -0.7353 0.0000 0.6778
vn -0.8861 0.0000 0.4635
vn -0.9859 0.0000 0.1674
vn -0.9859 0.0000 -0.1675
vn -0.8861 0.0000 -0.4635
vn -0.7353 0.0000 -0.6778
vn -0.5771 0.0000 -0.8167
vn -0.4297 0.0000 -0.9030
vn -0.2961 0.0000 -0.9552
vn 0.0000 1.0000 0.0000
vn -0.1732 0.0000 -0.9849
vn -0.0570 0.0000 -0.9984
vn 0.0000 -1.0000 0.0000
usemtl None
s off
f 17//13 18//13 20//13 19//13
f 19//14 20//14 22//14 21//14
f 21//15 22//15 24//15 23//15
f 23//16 24//16 26//16 25//16
f 25//17 26//17 28//17 27//17
f 27//18 28//18 30//18 29//18
f 29//19 30//19 32//19 31//19
f 31//20 32//20 34//20 33//20
f 33//21 34//21 36//21 35//21
f 35//22 36//22 38//22 37//22
f 37//23 38//23 40//23 39//23
f 39//24 40//24 42//24 41//24
f 41//25 42//25 44//25 43//25
f 43//26 44//26 46//26 45//26
f 45//27 46//27 48//27 47//27
f 47//28 48//28 50//28 49//28
f 49//29 50//29 52//29 51//29
f 51//30 52//30 54//30 53//30
f 53//31 54//31 56//31 55//31
f 55//32 56//32 58//32 57//32
f 57//33 58//33 60//33 59//33
f 59//34 60//34 62//34 61//34
f 61//35 62//35 64//35 63//35
f 63//36 64//36 66//36 65//36
f 65//37 66//37 68//37 67//37
f 67//38 68//38 70//38 69//38
f 69//39 70//39 72//39 71//39
f 71//40 72//40 74//40 73//40
f 73//41 74//41 76//41 75//41
f 75//42 76//42 78//42 77//42
f 20//43 18//43 80//43 78//43 76//43 74//43 72//43 70//43 68//43 66//43 64//43 62//43 60//43 58//43 56//43 54//43 52//43 50//43 48//43 46//43 44//43 42//43 40//43 38//43 36//43 34//43 32//43 30//43 28//43 26//43 24//43 22//43
f 77//44 78//44 80//44 79//44
f 79//45 80//45 18//45 17//45
f 17//46 19//46 21//46 23//46 25//46 27//46 29//46 31//46 33//46 35//46 37//46 39//46 41//46 43//46 45//46 47//46 49//46 51//46 53//46 55//46 57//46 59//46 61//46 63//46 65//46 67//46 69//46 71//46 73//46 75//46 77//46 79//46
o BezierCircle
v 2.958169 0.050057 0.000000
v 3.028644 0.050057 -3.372261
v 3.233932 0.050057 -6.606884
v 3.564824 0.050057 -9.674212
v 4.012111 0.050057 -12.544583
v 4.566587 0.050057 -15.188341
v 5.219043 0.050057 -17.575825
v 5.960270 0.050057 -19.677378
v 6.781061 0.050057 -21.463337
v 7.672208 0.050057 -22.904045
v 8.624502 0.050057 -23.969843
v 9.628736 0.050057 -24.631073
v 10.675700 0.050057 -24.858076
v 11.722665 0.050057 -24.631077
v 12.726898 0.050057 -23.969847
v 13.679192 0.050057 -22.904047
v 14.570339 0.050057 -21.463339
v 15.391129 0.050057 -19.677380
v 16.132357 0.050057 -17.575829
v 16.784813 0.050057 -15.188344
v 17.339289 0.050057 -12.544585
v 17.786575 0.050057 -9.674212
v 18.117468 0.050057 -6.606884
v 18.322756 0.050057 -3.372261
v 18.393232 0.050057 0.000000
v 18.322758 0.050057 3.372261
v 18.117470 0.050057 6.606884
v 17.786577 0.050057 9.674212
v 17.339289 0.050057 12.544583
v 16.784813 0.050057 15.188341
v 16.132359 0.050057 17.575825
v 15.391130 0.050057 19.677378
v 14.570339 0.050057 21.463337
v 13.679193 0.050057 22.904045
v 12.726898 0.050057 23.969843
v 11.722665 0.050057 24.631073
v 10.675700 0.050057 24.858076
v 9.628736 0.050057 24.631077
v 8.624502 0.050057 23.969847
v 7.672208 0.050057 22.904047
v 6.781062 0.050057 21.463339
v 5.960271 0.050057 19.677380
v 5.219044 0.050057 17.575829
v 4.566588 0.050057 15.188344
v 4.012112 0.050057 12.544585
v 3.564825 0.050057 9.674212
v 3.233932 0.050057 6.606884
v 3.028645 0.050057 3.372261
l 81 82
l 82 83
l 83 84
l 84 85
l 85 86
l 86 87
l 87 88
l 88 89
l 89 90
l 90 91
l 91 92
l 92 93
l 93 94
l 94 95
l 95 96
l 96 97
l 97 98
l 98 99
l 99 100
l 100 101
l 101 102
l 102 103
l 103 104
l 104 105
l 105 106
l 106 107
l 107 108
l 108 109
l 109 110
l 110 111
l 111 112
l 112 113
l 113 114
l 114 115
l 115 116
l 116 117
l 117 118
l 118 119
l 119 120
l 120 121
l 121 122
l 122 123
l 123 124
l 124 125
l 125 126
l 126 127
l 127 128
l 128 81
o Cube.002_Cube.003
v -9.212871 20.578548 23.095337
v -9.212871 22.578548 23.095337
v -9.212871 20.578548 -24.386559
v -9.212871 22.578548 -24.386559
v -7.212871 20.578548 23.095337
v -7.212871 22.578548 23.095337
v -7.212871 20.578548 -24.386559
v -7.212871 22.578548 -24.386559
vn -1.0000 0.0000 0.0000
vn 0.0000 0.0000 -1.0000
vn 1.0000 0.0000 0.0000
vn 0.0000 0.0000 1.0000
vn 0.0000 -1.0000 0.0000
vn 0.0000 1.0000 0.0000
usemtl None
s off
f 129//47 130//47 132//47 131//47
f 131//48 132//48 136//48 135//48
f 135//49 136//49 134//49 133//49
f 133//50 134//50 130//50 129//50
f 131//51 135//51 133//51 129//51
f 136//52 132//52 130//52 134//52
o Cube_Cube.001
v -9.000000 -1.033217 -18.692289
v -9.000000 30.964512 -18.692289
v -9.000000 -1.033217 -28.692289
v -9.000000 30.964512 -28.692289
v -7.000000 -1.033217 -18.692289
v -7.000000 30.964512 -18.692289
v -7.000000 -1.033217 -28.692289
v -7.000000 30.964512 -28.692289
vn -1.0000 0.0000 0.0000
vn 0.0000 0.0000 -1.0000
vn 1.0000 0.0000 0.0000
vn 0.0000 0.0000 1.0000
vn 0.0000 -1.0000 0.0000
vn 0.0000 1.0000 0.0000
usemtl None
s off
f 137//53 138//53 140//53 139//53
f 139//54 140//54 144//54 143//54
f 143//55 144//55 142//55 141//55
f 141//56 142//56 138//56 137//56
f 139//57 143//57 141//57 137//57
f 144//58 140//58 138//58 142//58
o stage_Cylinder
v -8.000000 -0.604024 -19.235323
v -8.000000 1.395976 -19.235323
v -6.507069 -0.604024 -18.865721
v -6.507069 1.395976 -18.865721
v -5.071510 -0.604024 -17.771120
v -5.071510 1.395976 -17.771120
v -3.748492 -0.604024 -15.993587
v -3.748492 1.395976 -15.993587
v -2.588857 -0.604024 -13.601427
v -2.588857 1.395976 -13.601427
v -1.637168 -0.604024 -10.686572
v -1.637168 1.395976 -10.686572
v -0.930000 -0.604024 -7.361039
v -0.930000 1.395976 -7.361039
v -0.494529 -0.604024 -3.752626
v -0.494529 1.395976 -3.752626
v -0.347487 -0.604024 -0.000001
v -0.347487 1.395976 -0.000001
v -0.494528 -0.604024 3.752623
v -0.494528 1.395976 3.752623
v -0.930000 -0.604024 7.361036
v -0.930000 1.395976 7.361036
v -1.637168 -0.604024 10.686572
v -1.637168 1.395976 10.686572
v -2.588857 -0.604024 13.601427
v -2.588857 1.395976 13.601427
v -3.748492 -0.604024 15.993587
v -3.748492 1.395976 15.993587
v -5.071511 -0.604024 17.771122
v -5.071511 1.395976 17.771122
v -6.507071 -0.604024 18.865723
v -6.507071 1.395976 18.865723
v -8.000003 -0.604024 19.235323
v -8.000003 1.395976 19.235323
v -9.492934 -0.604024 18.865721
v -9.492934 1.395976 18.865721
v -10.928493 -0.604024 17.771116
v -10.928493 1.395976 17.771116
v -12.251513 -0.604024 15.993581
v -12.251513 1.395976 15.993581
v -13.411147 -0.604024 13.601419
v -13.411147 1.395976 13.601419
v -14.362835 -0.604024 10.686562
v -14.362835 1.395976 10.686562
v -15.070002 -0.604024 7.361025
v -15.070002 1.395976 7.361025
v -15.505472 -0.604024 3.752609
v -15.505472 1.395976 3.752609
v -15.652513 -0.604024 -0.000019
v -15.652513 1.395976 -0.000019
v -15.505470 -0.604024 -3.752645
v -15.505470 1.395976 -3.752645
v -15.069996 -0.604024 -7.361059
v -15.069996 1.395976 -7.361059
v -14.362826 -0.604024 -10.686592
v -14.362826 1.395976 -10.686592
v -13.411137 -0.604024 -13.601444
v -13.411137 1.395976 -13.601444
v -12.251499 -0.604024 -15.993601
v -12.251499 1.395976 -15.993601
v -10.928479 -0.604024 -17.771132
v -10.928479 1.395976 -17.771132
v -9.492920 -0.604024 -18.865726
v -9.492920 1.395976 -18.865726
vn 0.2403 0.0000 -0.9707
vn 0.6063 0.0000 -0.7952
vn 0.8022 0.0000 -0.5971
vn 0.8998 0.0000 -0.4362
vn 0.9506 0.0000 -0.3104
vn 0.9781 0.0000 -0.2080
vn 0.9928 0.0000 -0.1198
vn 0.9992 0.0000 -0.0392
vn 0.9992 0.0000 0.0392
vn 0.9928 0.0000 0.1198
vn 0.9781 0.0000 0.2080
vn 0.9506 0.0000 0.3104
vn 0.8998 0.0000 0.4362
vn 0.8022 0.0000 0.5971
vn 0.6063 0.0000 0.7952
vn 0.2403 0.0000 0.9707
vn -0.2403 0.0000 0.9707
vn -0.6063 0.0000 0.7952
vn -0.8022 0.0000 0.5971
vn -0.8998 0.0000 0.4362
vn -0.9506 0.0000 0.3104
vn -0.9781 0.0000 0.2080
vn -0.9928 0.0000 0.1198
vn -0.9992 0.0000 0.0392
vn -0.9992 0.0000 -0.0392
vn -0.9928 0.0000 -0.1198
vn -0.9781 0.0000 -0.2080
vn -0.9506 0.0000 -0.3104
vn -0.8998 0.0000 -0.4362
vn -0.8022 0.0000 -0.5971
vn 0.0000 1.0000 0.0000
vn -0.6063 0.0000 -0.7952
vn -0.2403 0.0000 -0.9707
vn 0.0000 -1.0000 0.0000
usemtl None
s off
f 145//59 146//59 148//59 147//59
f 147//60 148//60 150//60 149//60
f 149//61 150//61 152//61 151//61
f 151//62 152//62 154//62 153//62
f 153//63 154//63 156//63 155//63
f 155//64 156//64 158//64 157//64
f 157//65 158//65 160//65 159//65
f 159//66 160//66 162//66 161//66
f 161//67 162//67 164//67 163//67
f 163//68 164//68 166//68 165//68
f 165//69 166//69 168//69 167//69
f 167//70 168//70 170//70 169//70
f 169//71 170//71 172//71 171//71
f 171//72 172//72 174//72 173//72
f 173//73 174//73 176//73 175//73
f 175//74 176//74 178//74 177//74
f 177//75 178//75 180//75 179//75
f 179//76 180//76 182//76 181//76
f 181//77 182//77 184//77 183//77
f 183//78 184//78 186//78 185//78
f 185//79 186//79 188//79 187//79
f 187//80 188//80 190//80 189//80
f 189//81 190//81 192//81 191//81
f 191//82 192//82 194//82 193//82
f 193//83 194//83 196//83 195//83
f 195//84 196//84 198//84 197//84
f 197//85 198//85 200//85 199//85
f 199//86 200//86 202//86 201//86
f 201//87 202//87 204//87 203//87
f 203//88 204//88 206//88 205//88
f 148//89 146//89 208//89 206//89 204//89 202//89 200//89 198//89 196//89 194//89 192//89 190//89 188//89 186//89 184//89 182//89 180//89 178//89 176//89 174//89 172//89 170//89 168//89 166//89 164//89 162//89 160//89 158//89 156//89 154//89 152//89 150//89
f 205//90 206//90 208//90 207//90
f 207//91 208//91 146//91 145//91
f 145//92 147//92 149//92 151//92 153//92 155//92 157//92 159//92 161//92 163//92 165//92 167//92 169//92 171//92 173//92 175//92 177//92 179//92 181//92 183//92 185//92 187//92 189//92 191//92 193//92 195//92 197//92 199//92 201//92 203//92 205//92 207//92
o floor_Cube
v 25.549316 -0.050000 -28.070490
v 25.549316 -0.050000 28.070492
v -25.549320 -0.050000 28.070486
v -25.549307 -0.050000 -28.070501
v 25.549328 0.050000 -28.070477
v 25.549299 0.050000 28.070509
v -25.549326 0.050000 28.070482
v -25.549314 0.050000 -28.070492
vn 0.0000 -1.0000 0.0000
vn 0.0000 1.0000 -0.0000
vn 1.0000 0.0001 0.0000
vn -0.0000 -0.0001 1.0000
vn -1.0000 -0.0001 -0.0000
vn 0.0000 0.0001 -1.0000
usemtl Material
s off
f 209//93 210//93 211//93 212//93
f 213//94 216//94 215//94 214//94
f 209//95 213//95 214//95 210//95
f 210//96 214//96 215//96 211//96
f 211//97 215//97 216//97 212//97
f 213//98 209//98 212//98 216//98
o Cube.001_Cube.002
v -9.000000 -0.579725 29.298609
v -9.000000 1.420275 29.298609
v -9.000000 -0.579725 19.298609
v -9.000000 1.420275 19.298609
v -7.000000 -0.579725 29.298609
v -7.000000 1.420275 29.298609
v -7.000000 -0.579725 19.298609
v -7.000000 1.420275 19.298609
vn -1.0000 0.0000 0.0000
vn 0.0000 0.0000 -1.0000
vn 1.0000 0.0000 0.0000
vn 0.0000 0.0000 1.0000
vn 0.0000 -1.0000 0.0000
vn 0.0000 1.0000 0.0000
usemtl None
s off
f 217//99 218//99 220//99 219//99
f 219//100 220//100 224//100 223//100
f 223//101 224//101 222//101 221//101
f 221//102 222//102 218//102 217//102
f 219//103 223//103 221//103 217//103
f 224//104 220//104 218//104 222//104
o Cylinder.001_Cylinder.002
v 4.594480 11.776801 -30.288393
v 4.594480 12.540175 -30.288393
v 5.700791 11.776801 -30.225208
v 5.700791 12.540175 -30.225208
v 6.764587 11.776801 -30.038078
v 6.764587 12.540175 -30.038078
v 7.744987 11.776801 -29.734200
v 7.744987 12.540175 -29.734200
v 8.604315 11.776801 -29.325245
v 8.604315 12.540175 -29.325245
v 9.309547 11.776801 -28.826933
v 9.309547 12.540175 -28.826933
v 9.833582 11.776801 -28.258413
v 9.833582 12.540175 -28.258413
v 10.156281 11.776801 -27.641533
v 10.156281 12.540175 -27.641533
v 10.265243 11.776801 -27.000000
v 10.265243 12.540175 -27.000000
v 10.156281 11.776801 -26.358467
v 10.156281 12.540175 -26.358467
v 9.833582 11.776801 -25.741587
v 9.833582 12.540175 -25.741587
v 9.309547 11.776801 -25.173067
v 9.309547 12.540175 -25.173067
v 8.604315 11.776801 -24.674755
v 8.604315 12.540175 -24.674755
v 7.744987 11.776801 -24.265800
v 7.744987 12.540175 -24.265800
v 6.764586 11.776801 -23.961920
v 6.764586 12.540175 -23.961920
v 5.700789 11.776801 -23.774792
v 5.700789 12.540175 -23.774792
v 4.594478 11.776801 -23.711607
v 4.594478 12.540175 -23.711607
v 3.488167 11.776801 -23.774792
v 3.488167 12.540175 -23.774792
v 2.424371 11.776801 -23.961922
v 2.424371 12.540175 -23.961922
v 1.443970 11.776801 -24.265802
v 1.443970 12.540175 -24.265802
v 0.584643 11.776801 -24.674755
v 0.584643 12.540175 -24.674755
v -0.120589 11.776801 -25.173069
v -0.120589 12.540175 -25.173069
v -0.644623 11.776801 -25.741589
v -0.644623 12.540175 -25.741589
v -0.967321 11.776801 -26.358469
v -0.967321 12.540175 -26.358469
v -1.076283 11.776801 -27.000004
v -1.076283 12.540175 -27.000004
v -0.967319 11.776801 -27.641537
v -0.967319 12.540175 -27.641537
v -0.644619 11.776801 -28.258417
v -0.644619 12.540175 -28.258417
v -0.120583 11.776801 -28.826937
v -0.120583 12.540175 -28.826937
v 0.584651 11.776801 -29.325249
v 0.584651 12.540175 -29.325249
v 1.443980 11.776801 -29.734201
v 1.443980 12.540175 -29.734201
v 2.424381 11.776801 -30.038082
v 2.424381 12.540175 -30.038082
v 3.488178 11.776801 -30.225208
v 3.488178 12.540175 -30.225208
vn 0.0570 0.0000 -0.9984
vn 0.1732 0.0000 -0.9849
vn 0.2961 0.0000 -0.9552
vn 0.4297 0.0000 -0.9030
vn 0.5771 0.0000 -0.8167
vn 0.7353 0.0000 -0.6778
vn 0.8861 0.0000 -0.4635
vn 0.9859 0.0000 -0.1674
vn 0.9859 0.0000 0.1674
vn 0.8861 0.0000 0.4635
vn 0.7353 0.0000 0.6778
vn 0.5771 0.0000 0.8167
vn 0.4297 0.0000 0.9030
vn 0.2961 0.0000 0.9552
vn 0.1732 0.0000 0.9849
vn 0.0570 0.0000 0.9984
vn -0.0570 0.0000 0.9984
vn -0.1732 0.0000 0.9849
vn -0.2961 0.0000 0.9552
vn -0.4297 0.0000 0.9030
vn -0.5771 0.0000 0.8167
vn -0.7353 0.0000 0.6778
vn -0.8861 0.0000 0.4635
vn -0.9859 0.0000 0.1674
vn -0.9859 0.0000 -0.1675
vn -0.8861 0.0000 -0.4635
vn -0.7353 0.0000 -0.6778
vn -0.5771 0.0000 -0.8167
vn -0.4297 0.0000 -0.9030
vn -0.2961 0.0000 -0.9552
vn 0.0000 1.0000 0.0000
vn -0.1732 0.0000 -0.9849
vn -0.0570 0.0000 -0.9984
vn 0.0000 -1.0000 0.0000
usemtl None
s off
f 225//105 226//105 228//105 227//105
f 227//106 228//106 230//106 229//106
f 229//107 230//107 232//107 231//107
f 231//108 232//108 234//108 233//108
f 233//109 234//109 236//109 235//109
f 235//110 236//110 238//110 237//110
f 237//111 238//111 240//111 239//111
f 239//112 240//112 242//112 241//112
f 241//113 242//113 244//113 243//113
f 243//114 244//114 246//114 245//114
f 245//115 246//115 248//115 247//115
f 247//116 248//116 250//116 249//116
f 249//117 250//117 252//117 251//117
f 251//118 252//118 254//118 253//118
f 253//119 254//119 256//119 255//119
f 255//120 256//120 258//120 257//120
f 257//121 258//121 260//121 259//121
f 259//122 260//122 262//122 261//122
f 261//123 262//123 264//123 263//123
f 263//124 264//124 266//124 265//124
f 265//125 266//125 268//125 267//125
f 267//126 268//126 270//126 269//126
f 269//127 270//127 272//127 271//127
f 271//128 272//128 274//128 273//128
f 273//129 274//129 276//129 275//129
f 275//130 276//130 278//130 277//130
f 277//131 278//131 280//131 279//131
f 279//132 280//132 282//132 281//132
f 281//133 282//133 284//133 283//133
f 283//134 284//134 286//134 285//134
f 228//135 226//135 288//135 286//135 284//135 282//135 280//135 278//135 276//135 274//135 272//135 270//135 268//135 266//135 264//135 262//135 260//135 258//135 256//135 254//135 252//135 250//135 248//135 246//135 244//135 242//135 240//135 238//135 236//135 234//135 232//135 230//135
f 285//136 286//136 288//136 287//136
f 287//137 288//137 226//137 225//137
f 225//138 227//138 229//138 231//138 233//138 235//138 237//138 239//138 241//138 243//138 245//138 247//138 249//138 251//138 253//138 255//138 257//138 259//138 261//138 263//138 265//138 267//138 269//138 271//138 273//138 275//138 277//138 279//138 281//138 283//138 285//138 287//138
